<mxfile host="Electron" agent="Mozilla/5.0 (Windows NT 10.0; Win64; x64) AppleWebKit/537.36 (KHTML, like Gecko) draw.io/28.1.2 Chrome/138.0.7204.243 Electron/37.4.0 Safari/537.36" version="28.1.2">
  <diagram name="PÃ¡gina-1" id="uH0WUsSY_CeTjUpvA5ZZ">
    <mxGraphModel dx="2066" dy="1201" grid="1" gridSize="10" guides="1" tooltips="1" connect="1" arrows="1" fold="1" page="1" pageScale="1" pageWidth="827" pageHeight="1169" math="0" shadow="0">
      <root>
        <mxCell id="0" />
        <mxCell id="1" parent="0" />
        <mxCell id="OK-_xNtQxap7TE1G4uKi-11" style="edgeStyle=orthogonalEdgeStyle;rounded=0;orthogonalLoop=1;jettySize=auto;html=1;" edge="1" parent="1" source="OK-_xNtQxap7TE1G4uKi-1" target="OK-_xNtQxap7TE1G4uKi-10">
          <mxGeometry relative="1" as="geometry" />
        </mxCell>
        <mxCell id="OK-_xNtQxap7TE1G4uKi-1" value="" style="sketch=0;points=[[0,0,0],[0.25,0,0],[0.5,0,0],[0.75,0,0],[1,0,0],[0,1,0],[0.25,1,0],[0.5,1,0],[0.75,1,0],[1,1,0],[0,0.25,0],[0,0.5,0],[0,0.75,0],[1,0.25,0],[1,0.5,0],[1,0.75,0]];outlineConnect=0;fontColor=#232F3E;fillColor=#7AA116;strokeColor=#ffffff;dashed=0;verticalLabelPosition=bottom;verticalAlign=top;align=center;html=1;fontSize=12;fontStyle=0;aspect=fixed;shape=mxgraph.aws4.resourceIcon;resIcon=mxgraph.aws4.s3;" vertex="1" parent="1">
          <mxGeometry x="130" y="710" width="78" height="78" as="geometry" />
        </mxCell>
        <mxCell id="OK-_xNtQxap7TE1G4uKi-13" style="edgeStyle=orthogonalEdgeStyle;rounded=0;orthogonalLoop=1;jettySize=auto;html=1;" edge="1" parent="1" source="OK-_xNtQxap7TE1G4uKi-2" target="OK-_xNtQxap7TE1G4uKi-12">
          <mxGeometry relative="1" as="geometry" />
        </mxCell>
        <mxCell id="OK-_xNtQxap7TE1G4uKi-2" value="" style="editableCssRules=.*;html=1;shape=image;verticalLabelPosition=bottom;labelBackgroundColor=#ffffff;verticalAlign=top;aspect=fixed;imageAspect=0;image=data:image/svg+xml,PHN2ZyB4bWxucz0iaHR0cDovL3d3dy53My5vcmcvMjAwMC9zdmciIHhtbG5zOnY9Imh0dHBzOi8vdmVjdGEuaW8vbmFubyIgd2lkdGg9IjIwIiBoZWlnaHQ9IjE2IiB2aWV3Qm94PSIwIDAgMjAgMTYiPiYjeGE7CTxzdHlsZSB0eXBlPSJ0ZXh0L2NzcyI+JiN4YTsJLnN0MHtmaWxsOiM0Mjg1ZjQ7fSYjeGE7CS5zdDF7ZmlsbDojNjY5ZGY2O30mI3hhOwkuc3Qye2ZpbGw6I2FlY2JmYTt9JiN4YTsJLnN0M3tmaWxsOiNmZmY7fSYjeGE7CTwvc3R5bGU+JiN4YTsJPHBhdGggY2xhc3M9InN0MiIgZD0iTTAgMGgyMHY3SDB6Ii8+JiN4YTsJPHBhdGggY2xhc3M9InN0MSIgZD0iTTE4IDBoMnY3aC0yeiIvPiYjeGE7CTxwYXRoIGNsYXNzPSJzdDAiIGQ9Ik0xOCA3bDItN2gtMnoiLz4mI3hhOwk8cGF0aCBjbGFzcz0ic3QxIiBkPSJNMCAwaDJ2N0gweiIvPiYjeGE7CTxnIGNsYXNzPSJzdDMiPiYjeGE7CQk8cGF0aCBkPSJNNCAzaDZ2MUg0eiIvPiYjeGE7CQk8cmVjdCB4PSIxMyIgeT0iMiIgd2lkdGg9IjMiIGhlaWdodD0iMyIgcng9IjEuNSIvPiYjeGE7CTwvZz4mI3hhOwk8cGF0aCBjbGFzcz0ic3QyIiBkPSJNMCA5aDIwdjdIMHoiLz4mI3hhOwk8cGF0aCBjbGFzcz0ic3QxIiBkPSJNMTggOWgydjdoLTJ6Ii8+JiN4YTsJPHBhdGggY2xhc3M9InN0MCIgZD0iTTE4IDE2bDItN2gtMnoiLz4mI3hhOwk8cGF0aCBjbGFzcz0ic3QxIiBkPSJNMCA5aDJ2N0gweiIvPiYjeGE7CTxnIGNsYXNzPSJzdDMiPiYjeGE7CQk8cGF0aCBkPSJNNCAxMmg2djFINHoiLz4mI3hhOwkJPHJlY3QgeD0iMTMiIHk9IjExIiB3aWR0aD0iMyIgaGVpZ2h0PSIzIiByeD0iMS41Ii8+JiN4YTsJPC9nPiYjeGE7PC9zdmc+;" vertex="1" parent="1">
          <mxGeometry x="365" y="710" width="96.25" height="77" as="geometry" />
        </mxCell>
        <mxCell id="OK-_xNtQxap7TE1G4uKi-9" style="edgeStyle=orthogonalEdgeStyle;rounded=0;orthogonalLoop=1;jettySize=auto;html=1;entryX=0.5;entryY=1;entryDx=0;entryDy=0;" edge="1" parent="1" source="OK-_xNtQxap7TE1G4uKi-3" target="OK-_xNtQxap7TE1G4uKi-8">
          <mxGeometry relative="1" as="geometry" />
        </mxCell>
        <mxCell id="OK-_xNtQxap7TE1G4uKi-3" value="" style="image;aspect=fixed;html=1;points=[];align=center;fontSize=12;image=img/lib/azure2/general/Storage_Container.svg;" vertex="1" parent="1">
          <mxGeometry x="630" y="713" width="88.62" height="72" as="geometry" />
        </mxCell>
        <mxCell id="OK-_xNtQxap7TE1G4uKi-5" style="edgeStyle=orthogonalEdgeStyle;rounded=0;orthogonalLoop=1;jettySize=auto;html=1;" edge="1" parent="1" source="OK-_xNtQxap7TE1G4uKi-4" target="OK-_xNtQxap7TE1G4uKi-1">
          <mxGeometry relative="1" as="geometry" />
        </mxCell>
        <mxCell id="OK-_xNtQxap7TE1G4uKi-6" style="edgeStyle=orthogonalEdgeStyle;rounded=0;orthogonalLoop=1;jettySize=auto;html=1;" edge="1" parent="1" source="OK-_xNtQxap7TE1G4uKi-4" target="OK-_xNtQxap7TE1G4uKi-2">
          <mxGeometry relative="1" as="geometry" />
        </mxCell>
        <mxCell id="OK-_xNtQxap7TE1G4uKi-7" style="edgeStyle=orthogonalEdgeStyle;rounded=0;orthogonalLoop=1;jettySize=auto;html=1;" edge="1" parent="1" source="OK-_xNtQxap7TE1G4uKi-4" target="OK-_xNtQxap7TE1G4uKi-3">
          <mxGeometry relative="1" as="geometry" />
        </mxCell>
        <mxCell id="OK-_xNtQxap7TE1G4uKi-4" value="&lt;h1&gt;&lt;b&gt;medicloudx.com&lt;/b&gt;&lt;/h1&gt;" style="text;html=1;align=center;verticalAlign=middle;whiteSpace=wrap;rounded=0;" vertex="1" parent="1">
          <mxGeometry x="268.13" y="940" width="290" height="50" as="geometry" />
        </mxCell>
        <mxCell id="OK-_xNtQxap7TE1G4uKi-8" value="&lt;h2&gt;Devs&lt;/h2&gt;" style="text;html=1;align=center;verticalAlign=middle;whiteSpace=wrap;rounded=0;" vertex="1" parent="1">
          <mxGeometry x="617.55" y="630" width="113.53" height="30" as="geometry" />
        </mxCell>
        <mxCell id="OK-_xNtQxap7TE1G4uKi-10" value="&lt;h2&gt;LandingPage&lt;/h2&gt;" style="text;html=1;align=center;verticalAlign=middle;whiteSpace=wrap;rounded=0;" vertex="1" parent="1">
          <mxGeometry x="90.11999999999999" y="630" width="157.76" height="30" as="geometry" />
        </mxCell>
        <mxCell id="OK-_xNtQxap7TE1G4uKi-12" value="&lt;h2&gt;Store&lt;/h2&gt;" style="text;html=1;align=center;verticalAlign=middle;whiteSpace=wrap;rounded=0;" vertex="1" parent="1">
          <mxGeometry x="357" y="630" width="113.53" height="30" as="geometry" />
        </mxCell>
      </root>
    </mxGraphModel>
  </diagram>
</mxfile>
